<svg xmlns="http://www.w3.org/2000/svg" viewBox="0 0 24 24"><g transform="matrix(2.79414 0 0 2.96962 -.142 -7.826)"><path fill="#0d47a1" d="m4.973 3.752-1.72-.02c-.195-.002-.354.193-.354.435l-.012 5.65c0 .243.157.44.352.443l1.721.02c.195.001.353-.193.354-.435l.011-5.651c0-.242-.157-.44-.352-.442Z"/><path fill="navy" d="m8 3.418-.014 1.634a.329.329 0 0 1-.338.317l-6.445-.026a.325.325 0 0 1-.333-.319L.885 3.39a.329.329 0 0 1 .337-.316l6.446.025a.326.326 0 0 1 .332.32z"/><ellipse cx="-11.515195" cy="-2.0652614" rx="1.2470131" ry="1.254975" style="fill:navy;stroke-width:.5745098" transform="matrix(-.7308866 -.682499 .7646557 -.644439 0 0)"/></g><path d="M4.13 10.749c.138.051.264.127.39.206.042.048.102.073.142.123.253.319-.596.541-.927.757l.94-.6c.02-.013-.022-.004-.048.049-.026.052-.031.115-.04.173-.006.146-.016.29-.069.425a3.919 3.919 0 0 1-.152.334c-.058.125-.09.261-.145.388-.075.131-.12.273-.157.42a1.65 1.65 0 0 0-.084.416 1.662 1.662 0 0 1-.068.48 1.495 1.495 0 0 0-.085.428c-.011.15-.057.293-.097.435-.034.14-.068.28-.127.409-.285.363-.833.787-1.321.696-.148-.036-.3-.027-.433-.113-.097-.068-.202-.123-.296-.194-.127-.065-.177-.194-.208-.334a1.246 1.246 0 0 1 .002-.46.785.785 0 0 1 .161-.344c.637-.498.78-.658 1.346-.67a1.7 1.7 0 0 1 .458.033c.121.028.205.145.33.15.112-.02.203.03.3.084.098.076.176.175.266.262.118.088.226.19.345.276.115.103.208.225.327.323.108.092.166.232.254.342.083.111.15.24.203.371.064.123.124.247.165.383.052.118.123.224.178.342.084.122.128.26.154.409.02.154.035.308-.02.454a.981.981 0 0 1-.218.284c-.394.347-.85.583-1.292.859-.09.03-.183.026-.272.06l.885-.744c.088-.016.178-.031.258-.078-1.531.979-1.047.719-.724.436.031-.027.077-.053.112-.074a2.64 2.64 0 0 0 .235-.237c.017-.032.042-.06.055-.094.033-.091-.001-.199-.002-.292a.856.856 0 0 0-.138-.376c-.058-.123-.137-.233-.186-.361-.037-.133-.101-.25-.162-.37a1.362 1.362 0 0 0-.186-.342c-.079-.107-.137-.234-.24-.32-.115-.098-.203-.224-.321-.318a9.643 9.643 0 0 1-.354-.287c-.084-.078-.157-.172-.254-.23-.093-.047-.188-.046-.287-.061-.11-.044-.201-.132-.32-.15-.148-.023-.296-.017-.445-.011-.479.034-.942.462.587-.509-.1.055-.15.159-.196.266-.026.14-.054.271-.023.414.022.12.06.197.165.25.097.061.19.127.289.184.128.053.271.053.406.076a.593.593 0 0 0 .193-.033c.018-.007.07-.038.053-.027-.873.571-1.225.737-.854.56.093-.088.114-.245.147-.37.034-.138.081-.271.108-.412a1.64 1.64 0 0 1 .07-.46 1.07 1.07 0 0 0 .082-.448c.008-.15.02-.301.071-.442.053-.144.06-.308.151-.435a2.19 2.19 0 0 0 .14-.392c.053-.11.112-.214.156-.327a.738.738 0 0 0 .087-.39c.04-.624.208-.482 1.023-.94-.314.205-.64.39-.942.616-.018.014.026.04.041.059.002.002.001-.007 0-.01-.035-.043-.085-.069-.125-.105a2.17 2.17 0 0 0-.393-.195ZM3.178 9.7a2.412 2.412 0 0 0-.392.389c-.073.113-.175.194-.23.32-.02.13-.084.234-.136.349-.056.131-.084.275-.161.394-.348.258-.755.483-1.095.699-.301.192.603-.383.906-.572.03-.02-.056.047-.08.074a.143.143 0 0 0-.028.108l-.985.583a.366.366 0 0 1-.01-.2c.187-.438.679-.497 1.066-.761.296-.202-.601.385-.903.576-.03.019.11-.081.09-.057.145-.036.126-.205.188-.33.04-.138.123-.205.138-.345.04-.168.11-.242.22-.357.101-.161.24-.288.373-.416l1.04-.454Z" style="fill:navy" transform="translate(15.654054 2.9405406)"/><path d="M3.667 10.45c.095.141.242.188.378.262.12.046.24.099.363.138l-.922.689c-.124-.049-.25-.092-.368-.154a1.38 1.38 0 0 1-.397-.277l.946-.657z" style="fill:navy" transform="translate(15.654054 2.9405406)"/></svg>