<?xml version="1.0" standalone="no"?>
<!DOCTYPE svg PUBLIC "-//W3C//DTD SVG 20010904//EN"
 "http://www.w3.org/TR/2001/REC-SVG-20010904/DTD/svg10.dtd">
<svg version="1.0" xmlns="http://www.w3.org/2000/svg"
 width="700.000000pt" height="700.000000pt" viewBox="0 0 700.000000 700.000000"
 preserveAspectRatio="xMidYMid meet">
<metadata>
Created by potrace 1.14, written by Peter Selinger 2001-2017
</metadata>
<g transform="translate(0.000000,700.000000) scale(0.100000,-0.100000)"
fill="#000000" stroke="none">
<path d="M880 6611 c-97 -30 -176 -118 -195 -216 -3 -16 -8 -362 -11 -767 -4
-555 -3 -747 6 -775 28 -89 105 -168 185 -188 30 -8 444 -13 1107 -14 l347 -1
-2 -1982 c-2 -1923 -1 -1985 17 -2038 39 -113 126 -207 209 -227 27 -6 199 -9
920 -18 503 -6 573 -4 616 10 84 28 153 110 189 226 20 62 21 92 22 839 1 972
8 3163 9 3172 1 4 443 7 984 5 l982 -2 45 24 c57 30 107 83 133 141 25 55 26
83 29 935 l3 650 -24 53 c-29 65 -98 127 -161 146 -36 11 -130 14 -396 15
-192 1 -776 4 -1299 6 -2563 11 -3692 13 -3715 6z"/>
<path d="M5320 3239 c-105 -47 -144 -70 -175 -103 -76 -80 -106 -126 -147
-228 -23 -57 -51 -110 -62 -118 -59 -41 -100 -107 -87 -142 5 -14 16 -11 76
26 39 23 92 55 118 69 77 43 97 58 97 73 0 8 20 29 45 46 35 25 50 44 66 87
11 31 27 70 34 86 7 17 22 50 33 75 10 25 49 78 86 118 38 39 64 72 59 71 -4
0 -69 -28 -143 -60z"/>
<path d="M5492 2996 l-132 -94 32 -27 c18 -15 78 -50 133 -79 55 -28 99 -57
98 -63 -2 -7 -5 -45 -9 -85 -4 -53 -16 -95 -44 -158 -21 -47 -42 -97 -45 -113
-9 -35 -11 -36 -81 -41 -271 -22 -511 -132 -699 -321 -137 -136 -240 -323
-270 -487 -3 -13 -8 -44 -13 -69 -10 -51 -8 -230 3 -299 10 -63 59 -209 94
-277 16 -32 52 -89 79 -128 71 -100 104 -132 269 -265 7 -6 15 -10 17 -10 3 0
27 -13 53 -29 145 -89 362 -144 565 -143 71 1 132 3 136 6 5 3 31 8 58 12 27
3 85 17 129 31 452 142 751 538 740 983 -3 132 -10 173 -46 285 -111 337 -406
600 -766 684 l-51 13 14 46 c9 26 20 56 26 66 5 10 20 46 33 80 13 34 35 87
49 118 23 50 30 79 40 170 1 9 7 22 13 30 6 7 14 25 18 39 6 26 1 32 -83 100
-7 6 -40 21 -73 34 -32 13 -79 37 -104 54 -25 17 -47 31 -48 31 -1 -1 -62 -43
-135 -94z"/>
</g>
</svg>
