<svg id="Icons" viewBox="0 0 48 48" xmlns="http://www.w3.org/2000/svg"><defs><style>.cls-2{fill:#bdbec0}.cls-2,.cls-6{stroke:#45413c;stroke-linecap:round;stroke-linejoin:round}.cls-8{fill:#fff}.cls-6{fill:none}.cls-7{fill:#e8f4fa}</style></defs><g data-name="&lt;Group&gt;" id="_Group_"><ellipse cx="24" cy="44.35" data-name="&lt;Ellipse&gt;" fill="#45413c" id="_Ellipse_" opacity=".15" rx="17.59" ry="1.65"/><path class="cls-2" d="M8.61 35.8h30.78v4.4a3.3 3.3 0 0 1-3.3 3.3H11.91a3.3 3.3 0 0 1-3.3-3.3v-4.4h0Z" data-name="&lt;Rectangle&gt;" id="_Rectangle_"/><path class="cls-2" d="M8.61 33.6h30.78V38a3.3 3.3 0 0 1-3.3 3.3H11.91a3.3 3.3 0 0 1-3.3-3.3v-4.4h0Z" data-name="&lt;Rectangle&gt;" id="_Rectangle_2"/><path d="M8.61 16h30.78v19.8a3.3 3.3 0 0 1-3.3 3.3H11.91a3.3 3.3 0 0 1-3.3-3.3V16h0Z" data-name="&lt;Rectangle&gt;" fill="#fff" id="_Rectangle_3" stroke="#45413c" stroke-linecap="round" stroke-linejoin="round"/><path d="M11.91 6.67h24.18a3.3 3.3 0 0 1 3.3 3.3v6H8.61V10a3.3 3.3 0 0 1 3.3-3.33Z" data-name="&lt;Rectangle&gt;" fill="#ff6242" id="_Rectangle_4"/><path d="M36.09 6.67H11.91A3.29 3.29 0 0 0 8.61 10v2.75a3.29 3.29 0 0 1 3.3-3.3h24.18a3.29 3.29 0 0 1 3.3 3.3V10a3.29 3.29 0 0 0-3.3-3.33Z" data-name="&lt;Path&gt;" fill="#ff866e" id="_Path_"/><path class="cls-6" d="M11.91 6.67h24.18a3.3 3.3 0 0 1 3.3 3.3v6h0H8.61h0V10a3.3 3.3 0 0 1 3.3-3.33Z" data-name="&lt;Rectangle&gt;" id="_Rectangle_5"/><path class="cls-7" d="M15.2 9.42a1.11 1.11 0 0 1-1.1-1.1V5a1.1 1.1 0 0 1 1.1-1.1A1.1 1.1 0 0 1 16.3 5v3.3a1.1 1.1 0 0 1-1.1 1.12Z" data-name="&lt;Path&gt;" id="_Path_2"/><path class="cls-7" d="M24 9.42a1.1 1.1 0 0 1-1.1-1.1V5A1.1 1.1 0 0 1 24 3.92 1.1 1.1 0 0 1 25.1 5v3.3A1.1 1.1 0 0 1 24 9.42Z" data-name="&lt;Path&gt;" id="_Path_3"/><path class="cls-7" d="M32.8 9.42a1.1 1.1 0 0 1-1.1-1.1V5a1.1 1.1 0 0 1 1.1-1.1A1.1 1.1 0 0 1 33.9 5v3.3a1.11 1.11 0 0 1-1.1 1.12Z" data-name="&lt;Path&gt;" id="_Path_4"/><path class="cls-8" d="M15.2 3.92A1.1 1.1 0 0 0 14.1 5v1.67a1.1 1.1 0 0 1 2.2 0V5a1.1 1.1 0 0 0-1.1-1.08Z" data-name="&lt;Path&gt;" id="_Path_5"/><path class="cls-8" d="M24 3.92A1.1 1.1 0 0 0 22.9 5v1.67a1.1 1.1 0 0 1 2.2 0V5A1.1 1.1 0 0 0 24 3.92Z" data-name="&lt;Path&gt;" id="_Path_6"/><path class="cls-8" d="M32.8 3.92A1.1 1.1 0 0 0 31.7 5v1.67a1.1 1.1 0 0 1 2.2 0V5a1.1 1.1 0 0 0-1.1-1.08Z" data-name="&lt;Path&gt;" id="_Path_7"/><path class="cls-6" d="M15.2 9.42h0a1.11 1.11 0 0 1-1.1-1.1V5a1.1 1.1 0 0 1 1.1-1.1h0A1.1 1.1 0 0 1 16.3 5v3.3a1.1 1.1 0 0 1-1.1 1.12Z" data-name="&lt;Path&gt;" id="_Path_8"/><path class="cls-6" d="M24 9.42h0a1.1 1.1 0 0 1-1.1-1.1V5A1.1 1.1 0 0 1 24 3.92h0A1.1 1.1 0 0 1 25.1 5v3.3A1.1 1.1 0 0 1 24 9.42Z" data-name="&lt;Path&gt;" id="_Path_9"/><path class="cls-6" d="M32.8 9.42h0a1.1 1.1 0 0 1-1.1-1.1V5a1.1 1.1 0 0 1 1.1-1.1h0A1.1 1.1 0 0 1 33.9 5v3.3a1.11 1.11 0 0 1-1.1 1.12Z" data-name="&lt;Path&gt;" id="_Path_10"/><path d="M17.94 32.21v-9h-1.06a1.12 1.12 0 0 1-.92-.37 1.33 1.33 0 0 1-.31-.88A1.28 1.28 0 0 1 16 21a1.15 1.15 0 0 1 .9-.37h2.56a1.17 1.17 0 0 1 .89.35 1.36 1.36 0 0 1 .32.93v10.3a1.4 1.4 0 0 1-.38 1 1.34 1.34 0 0 1-1 .36 1.32 1.32 0 0 1-1-.37 1.36 1.36 0 0 1-.35-.99Zm5.66-.51 4.51-8.54h-4.63a1.3 1.3 0 0 1-1-.36 1.25 1.25 0 0 1 1-2.13H30a1.13 1.13 0 0 1 1 .43 1.44 1.44 0 0 1 .33.87 1.28 1.28 0 0 1-.11.52 6.82 6.82 0 0 1-.3.67l-4.48 9.09a6.09 6.09 0 0 1-.47.85 1.17 1.17 0 0 1-.41.39 1.67 1.67 0 0 1-1.72-.29 1.22 1.22 0 0 1-.41-.86 1.42 1.42 0 0 1 .17-.64Z" data-name="&lt;Group&gt;" fill="#45413c" id="_Group_2"/></g></svg>
