<svg viewBox="0 0 6.3499999 6.3500002" xmlns="http://www.w3.org/2000/svg"><g color="#000" font-family="sans-serif" font-weight="400"><path d="M.7935536 1.0578804c-.146171.000517-.264234.1194364-.263672.2655848v4.2317813c-.000562.1461484.117501.2650678.263672.2655848h4.7617189c.146934.0005556.2661901-.118673.265625-.2655848V1.3234652c.0005556-.1469117-.118691-.2661494-.265625-.2655848-1.5865888.0003916-3.1740889 0-4.761719 0z" fill="#87aade" overflow="visible" style="line-height:normal;font-variant-ligatures:normal;font-variant-position:normal;font-variant-caps:normal;font-variant-numeric:normal;font-variant-alternates:normal;font-variant-east-asian:normal;font-feature-settings:normal;font-variation-settings:normal;text-indent:0;text-align:start;text-decoration-line:none;text-decoration-style:solid;text-decoration-color:#000;text-transform:none;text-orientation:mixed;white-space:normal;shape-padding:0;shape-margin:0;inline-size:0;isolation:auto;mix-blend-mode:normal;solid-color:#000;solid-opacity:1"/><path d="M1.5865226 3.1747475c-.343622-.013286-.359591.513173 0 .5292168h.529297c.348838.00798.358831-.5201171 0-.5292168zm1.324219 0c-.340783-.020132-.36608.5022804 0 .5292168h.5292969c.36038-.016605.3438811-.5428932 0-.5292168zm1.3222651 0c-.3484761-.00685-.3564022.5216082 0 .5292168h.5292968c.3569319-.00761.3489899-.5360662 0-.5292168zM1.5865226 4.233181c-.34772-.00702-.355422.5214586 0 .5292167h.529297c.348708.00785.358962-.520205 0-.5292167zm1.324219 0c-.349398-.00709-.357217.521381 0 .5292167h.5292969c.351373.0005556.3527931-.5285261 0-.5292167zm1.3222651 0c-.3576691.00925-.3472241.5372539 0 .5292167h.5292968c.3566322-.00738.3492871-.5359207 0-.5292167zM.5291006 2.9100741c1.852083 0 3.7076751.00122 5.291667.0000087 0-.5290866 0-1.0581819-.0000021-1.5867453.0005556-.1469054-.118689-.2661366-.265616-.2655766-1.645433 0-3.1739659.0005291-4.761465 0-.14612.0005821-.264107.1194789-.26355.2655766-.000424.5226865-.001.7931067-.001 1.5867366z" fill="#3771c8" overflow="visible" style="line-height:normal;font-variant-ligatures:normal;font-variant-position:normal;font-variant-caps:normal;font-variant-numeric:normal;font-variant-alternates:normal;font-variant-east-asian:normal;font-feature-settings:normal;font-variation-settings:normal;text-indent:0;text-align:start;text-decoration-line:none;text-decoration-style:solid;text-decoration-color:#000;text-transform:none;text-orientation:mixed;white-space:normal;shape-padding:0;shape-margin:0;inline-size:0;isolation:auto;mix-blend-mode:normal;solid-color:#000;solid-opacity:1"/><path d="M4.2330067.7942484V1.852682c.0004498.3517608.529626.351605.5292968 0V.7942484c.0054-.3503034-.5233328-.3565444-.5292968 0zm-2.6464841 0V1.852682c-.0064.347189.522001.3562005.529297 0V.7942484c.0082-.3491704-.520249-.3576884-.529297 0z" fill="#214478" overflow="visible" style="line-height:normal;font-variant-ligatures:normal;font-variant-position:normal;font-variant-caps:normal;font-variant-numeric:normal;font-variant-alternates:normal;font-variant-east-asian:normal;font-feature-settings:normal;font-variation-settings:normal;text-indent:0;text-align:start;text-decoration-line:none;text-decoration-style:solid;text-decoration-color:#000;text-transform:none;text-orientation:mixed;white-space:normal;shape-padding:0;shape-margin:0;inline-size:0;isolation:auto;mix-blend-mode:normal;solid-color:#000;solid-opacity:1"/></g></svg>
