<svg viewBox="0 0 398.75 396.1" xmlns="http://www.w3.org/2000/svg"><defs><style>.cls-1{fill:#32caf8}.cls-2{fill:#00a3eb}.cls-3{fill:#fff}.cls-6{fill:#426572}</style></defs><g data-name="Layer 2" id="Layer_2"><g data-name="Layer 1" id="Layer_1-2"><rect class="cls-1" height="335.98" rx="86.19" ry="86.19" width="386.75" x="6" y="54.12"/><path class="cls-2" d="M6.44 157.91h386.75v7H6.44z"/><path class="cls-2" d="M393.19 286.69v28.19a76.32 76.32 0 0 1-76.1 76.12H82.55a76.32 76.32 0 0 1-76.11-76.12V131.11a75.52 75.52 0 0 1 .88-11.55v155.58a76.32 76.32 0 0 0 76.11 76.11H318a76.38 76.38 0 0 0 75.19-64.56Z"/><ellipse class="cls-3" cx="360.38" cy="206.85" rx="3.83" ry="24.95" transform="rotate(-1.03 361.3993342 207.4104834)"/><ellipse class="cls-3" cx="361.11" cy="255.69" rx="3.83" ry="12.48" transform="rotate(-1.03 360.9643342 255.8046443)"/><path d="M392.75 128.46v22.35H7.32v-33a75.52 75.52 0 0 0-.88 11.55v21.47H6v-22.37a76.32 76.32 0 0 1 76.1-76.1h234.55a76.32 76.32 0 0 1 76.1 76.1Z" fill="#ffd947"/><path d="M397.17 132.88v22.35h-1.62a76.39 76.39 0 0 0-74.48-60.48H86.52A76.39 76.39 0 0 0 12 155.23h-.3v-33a75.52 75.52 0 0 0-.88 11.55v21.47h-.44v-22.37a76.32 76.32 0 0 1 76.14-76.11h234.54a76.32 76.32 0 0 1 76.11 76.11Z" fill="#f3a70f"/><path class="cls-6" d="M6 146.58h386.75v12H6z"/><path class="cls-6" d="M306.56 396.1H92.19A92.29 92.29 0 0 1 0 303.91v-163.6a92.29 92.29 0 0 1 92.19-92.19h214.37a92.29 92.29 0 0 1 92.19 92.19v163.6a92.29 92.29 0 0 1-92.19 92.19ZM92.19 60.12A80.28 80.28 0 0 0 12 140.31v163.6a80.28 80.28 0 0 0 80.19 80.19h214.37a80.28 80.28 0 0 0 80.19-80.19v-163.6a80.28 80.28 0 0 0-80.19-80.19Z"/><rect class="cls-1" height="93.6" rx="21.19" ry="21.19" width="42.38" x="94.74" y="6"/><rect class="cls-1" height="93.6" rx="21.19" ry="21.19" width="42.38" x="254.56" y="6"/><path class="cls-6" d="M115.93 105.6a27.22 27.22 0 0 1-27.19-27.19V27.19a27.19 27.19 0 0 1 54.38 0v51.22a27.22 27.22 0 0 1-27.19 27.19Zm0-93.6a15.21 15.21 0 0 0-15.19 15.19v51.22a15.19 15.19 0 0 0 30.38 0V27.19A15.21 15.21 0 0 0 115.93 12Zm159.82 93.6a27.22 27.22 0 0 1-27.19-27.19V27.19a27.19 27.19 0 1 1 54.38 0v51.22a27.22 27.22 0 0 1-27.19 27.19Zm0-93.6a15.21 15.21 0 0 0-15.19 15.19v51.22a15.19 15.19 0 1 0 30.38 0V27.19A15.21 15.21 0 0 0 275.75 12Z"/></g></g></svg>
