<svg id="Layer_1" version="1.1" viewBox="0 0 512 512" xml:space="preserve" xmlns="http://www.w3.org/2000/svg"><style>.st1,.st3{fill:none;stroke:#1e247e;stroke-width:6;stroke-linecap:round;stroke-miterlimit:10}.st3{stroke-width:3}.st14{fill:#d3d5e7}.st17{fill:#ececee}.st40{fill:#fff}.st43{fill:#f0c330;stroke:#1e247e;stroke-width:5;stroke-linecap:round;stroke-miterlimit:10}.st53{opacity:.3;fill:#a2655f}</style><g id="Calendar_and_alarm_clock"><circle cx="254.7" cy="242.6" fill="#eeedf2" id="Background_5_" r="215.5" stroke="#fff" stroke-miterlimit="10"/><g id="Bottom_line_1_"><path class="st1" d="M451.5 458.4h18.8" id="Right_22_"/><path class="st1" d="M64.9 458.7h377" id="Middle_13_"/><path class="st1" d="M40.3 458.7h11.6" id="Left_23_"/></g><g id="Calendar"><path class="st14" d="M423.6 239.3v183.6c0 13.5-10.9 24.4-24.4 24.4H131.7c-13.5 0-24.4-10.9-24.4-24.4V239.3c0-11.9 9.6-21.5 21.5-21.5H402c11.9 0 21.6 9.7 21.6 21.5z" id="Shadow_20_"/><path d="M410.9 250.7v183.6c0 13.5-10.9 24.4-24.4 24.4H119c-13.5 0-24.4-10.9-24.4-24.4V250.7c0-11.9 9.6-21.5 21.5-21.5h273.2c12 0 21.6 9.6 21.6 21.5z" fill="#fff" id="Shape_28_" stroke="#1e247e" stroke-linecap="round" stroke-miterlimit="10" stroke-width="6"/><g id="Content_2_"><g id="Days"><circle class="st14" cx="361.2" cy="418.9" id="_x31_4" r="13.3"/><circle class="st17" cx="308.5" cy="418.9" id="_x31_3" r="13.3"/><circle class="st17" cx="252.8" cy="418.9" id="_x31_2" r="13.3"/><circle class="st17" cx="197.1" cy="418.9" id="_x31_1" r="13.3"/><circle class="st17" cx="144.3" cy="418.9" id="_x31_0" r="13.3"/><circle class="st17" cx="361.2" cy="369.1" id="_x39_" r="13.3"/><circle class="st17" cx="308.5" cy="369.1" id="_x38_" r="13.3"/><circle class="st14" cx="197.1" cy="369.1" id="_x37_" r="13.3"/><circle class="st17" cx="144.3" cy="369.1" id="_x36_" r="13.3"/><circle class="st14" cx="361.2" cy="319.4" id="_x35_" r="13.3"/><circle class="st17" cx="308.5" cy="319.4" id="_x34_" r="13.3"/><circle class="st17" cx="252.8" cy="319.4" id="_x33_" r="13.3"/><circle class="st17" cx="197.1" cy="319.4" id="_x32_" r="13.3"/><circle class="st17" cx="144.3" cy="319.4" id="_x31_" r="13.3"/></g><path class="st3" d="M398.2 387.7v-6.2m0 13.2v23.2"/></g><g id="Top_10_"><path d="M410.9 250.7V278H94.6v-27.3c0-11.9 9.6-21.5 21.5-21.5h273.2c12 0 21.6 9.6 21.6 21.5z" fill="#da867d" stroke="#1e247e" stroke-linecap="round" stroke-miterlimit="10" stroke-width="6"/><circle class="st53" cx="185.6" cy="248.8" r="9.7"/><circle class="st53" cx="321.3" cy="248.8" r="9.7"/><path class="st1" d="M185.6 212.8v36m135.7-36v36"/><path class="st3" d="M105.7 246.4c1.5-4.2 5.5-7.2 10.2-7.2"/></g></g><g id="Alarm_clock"><circle cx="312" cy="139.4" fill="#fff" id="Shape_27_" r="35.5" stroke="#1e247e" stroke-linecap="round" stroke-miterlimit="10" stroke-width="4"/><path d="M289.8 99.1 274 116.4c-.2.2-.4.2-.6 0-4.7-4.6-4.9-12.1-.5-16.9 4.4-4.9 11.9-5.3 16.9-1 .2.1.2.4 0 .6zm44.3 0 15.9 17.4c.2.2.4.2.6 0 4.7-4.6 4.9-12.1.5-16.9-4.4-4.9-11.9-5.3-16.9-1-.2 0-.2.3-.1.5z" fill="#79caa1" id="Alarm" stroke="#1e247e" stroke-linecap="round" stroke-miterlimit="10" stroke-width="4"/><path d="M312 112.3c1.9 0 1.9-3 0-3s-1.9 3 0 3zm-.1 58.1c1.9 0 1.9-3 0-3s-1.9 3 0 3zm-29.6-29.6c1.9 0 1.9-3 0-3s-1.9 3 0 3zm58.6 0c1.9 0 1.9-3 0-3s-1.9 3 0 3zm-51-18.9c1.9 0 1.9-3 0-3s-1.9 3 0 3zm44.7 0c1.9 0 1.9-3 0-3s-1.9 3 0 3zm0 37.6c1.9 0 1.9-3 0-3s-1.9 3 0 3zm-44.7 1.2c1.9 0 1.9-3 0-3s-1.9 3 0 3z" fill="#1e247e" id="Hours"/><path d="M311.9 119.4v20.1c0 .1 0 .2.1.2l11.5 10.2" fill="none" id="Arrows" stroke="#1e247e" stroke-linecap="round" stroke-miterlimit="10" stroke-width="5"/></g><g id="Stars"><path class="st43" d="m251.7 345.6 6.2 12.6 13.9 2c.2 0 .3.3.1.4l-10.1 9.8 2.4 13.9c0 .2-.2.3-.3.2l-12.5-6.6-12.5 6.6c-.2.1-.4-.1-.3-.2l2.4-13.9-10.1-9.8c-.1-.1-.1-.4.1-.4l13.9-2 6.2-12.6c.3-.2.5-.2.6 0z" id="Middle_bottom"/><path class="st43" d="m420.9 161.2.5 14.1 11.9 7.6c.2.1.1.4 0 .4L420 188l-3.5 13.6c0 .2-.3.2-.4.1l-8.7-11.1-14.1.8c-.2 0-.3-.2-.2-.4l7.9-11.7-5.1-13.1c-.1-.2.1-.4.3-.3l13.5 3.9 10.9-8.9c.1 0 .3.1.3.3z" id="Right_21_"/><path class="st43" d="m153.7 103.6 8.5 17.2 19 2.8c.3 0 .4.4.2.6l-13.7 13.4 3.2 18.9c0 .3-.2.5-.5.3l-17-8.9-17 8.9c-.2.1-.5-.1-.5-.3l3.2-18.9-13.7-13.4c-.2-.2-.1-.5.2-.6l19-2.8 8.5-17.2c.1-.2.5-.2.6 0z" id="Left_top"/><path d="m83.3 186.3 5.5 11.1 12.2 1.8c.2 0 .2.2.1.4l-8.8 8.6 2.1 12.2c0 .2-.1.3-.3.2l-10.9-5.7-10.9 5.7c-.2.1-.3 0-.3-.2l2.1-12.2-8.8-8.6c-.1-.1-.1-.3.1-.4l12.2-1.8 5.5-11.1c-.1-.1.2-.1.2 0z" fill="#f0c330" id="Left_bottom" stroke="#1e247e" stroke-linecap="round" stroke-miterlimit="10" stroke-width="4.5"/></g><g id="Sparkles_2_"><path class="st40" d="M461.5 217.6c-12.9-.7-12.6-15-12.6-15-.3 15.8-13.3 15-13.3 15s13.3 1.3 13.3 14.6c.1.1 1.7-13.3 12.6-14.6" id="_x34_th"/><path class="st40" d="M273.4 188.7c-12.9-.7-12.6-15-12.6-15-.3 15.8-13.3 15-13.3 15s13.3 1.3 13.3 14.6c0 .1 1.7-13.3 12.6-14.6" id="_x33_rd_1_"/><path class="st40" d="M253.3 168.5c-22.4-1.2-21.8-26-21.8-26-.6 27.3-23 26-23 26s23 2.2 23 25.4c0 0 2.9-23.2 21.8-25.4" id="_x32_nd_1_"/><path class="st40" d="M240.4 84.7c-12.4-.6-12.1-14.5-12.1-14.5-.3 15.2-12.8 14.5-12.8 14.5s12.8 1.2 12.8 14.1c-.1 0 1.5-12.9 12.1-14.1" id="_x31_st_1_"/></g></g></svg>
