<svg viewBox="0 0 128 128" xml:space="preserve" xmlns="http://www.w3.org/2000/svg"><circle cx="64" cy="64" fill="#2979A2" r="64"/><path d="M128 64c0 15.56-5.55 29.82-14.77 40.91l-97.05 1.63C9.68 99.25 4.83 90.46 2.22 80.75c.92-.98 2.15-1.95 4.08-2.9 6.71-3.3 8.48.29 15.2-3.01 6.71-3.3 4.94-6.89 11.65-10.19 6.72-3.3 8.48.29 15.19-3.01 6.71-3.3 4.95-6.89 11.66-10.19s8.47.29 15.18-3.01 4.95-6.89 11.66-10.19 8.48.29 15.19-3.01c6.71-3.3 4.94-6.89 11.65-10.19.28-.14.55-.26.82-.37C122.96 35.53 128 49.17 128 64z" fill="#CBEAED"/><path d="M127.99 64.99C127.46 99.88 99.02 128 64 128c-26.23 0-48.78-15.78-58.66-38.36 8.98-.45 42.16-3.04 68.99-17.31 19.5-10.37 40.55-9.48 53.66-7.34z" fill="#B99AC8"/><path d="M106.594 49.211c-.759 3.756-2.92 7.013-3.818 10.413-1.005 3.805-.811 7.889-1.915 11.074-1.362 3.931-3.928 6.491-5.306 9.16-2.302 4.459-2.043 16.677-3.834 16.315-1.791-.362-4.127-12.999-4.517-18.001-.234-2.995-1.604-6.35-1.333-10.5.219-3.363 1.983-7.051 2.534-10.948.493-3.484-.234-7.325.525-11.082.759-3.756 2.92-7.013 3.818-10.413 1.005-3.805.811-7.889 1.915-11.074 1.362-3.931 3.928-6.491 5.306-9.161 2.302-4.459 4.179-8.4 5.97-8.038 1.791.362 1.991 4.722 2.381 9.724.234 2.995 1.604 6.35 1.333 10.5-.219 3.363-1.983 7.051-2.534 10.948-.493 3.484.234 7.326-.525 11.083z" fill="#54A5C5"/><path d="M119.506 71.766c-1.407 2.558-4.387 4.067-5.908 6.284-1.702 2.48-2.039 5.742-3.771 7.694-2.137 2.409-5.495 3.187-7.477 4.609-3.31 2.376-6.053 4.55-8.099 3.424-2.046-1.126-1.678-4.606-1.444-8.673.14-2.435-1.001-5.687-.111-8.782.721-2.508 3.295-4.539 4.479-7.304 1.058-2.472.738-5.798 2.146-8.357 1.407-2.558 4.387-4.067 5.908-6.284 1.702-2.48 2.039-5.742 3.771-7.694 2.137-2.409 5.495-3.187 7.477-4.609 3.31-2.376 6.053-4.55 8.099-3.424 2.046 1.126 1.678 4.606 1.444 8.673-.14 2.435 1.001 5.687.111 8.782-.721 2.508-3.295 4.539-4.479 7.304-1.058 2.472-.738 5.798-2.146 8.357z" fill="#65C7CF"/><path d="M27.421 57.841c.626 3.096 2.837 5.695 3.638 8.486.896 3.124.445 6.55 1.486 9.149 1.285 3.208 3.987 5.2 5.363 7.353 2.299 3.595 1.305 13.826 3.315 13.42 2.01-.406 5.336-11.108 6.058-15.313.433-2.517 2.149-5.402 2.088-8.857-.049-2.799-1.795-5.781-2.182-9.007-.346-2.884.683-6.139.058-9.236-.626-3.096-2.837-5.695-3.638-8.486-.896-3.124-.445-6.55-1.486-9.149-1.285-3.208-3.987-5.2-5.363-7.353-2.299-3.595-4.156-6.782-6.166-6.376-2.01.406-2.484 4.064-3.207 8.268-.433 2.517-2.149 5.402-2.088 8.857.049 2.799 1.795 5.781 2.182 9.007.346 2.885-.684 6.14-.058 9.237z" fill="#54A5C5"/><path d="M15.997 74.352c.489 2.357 2.472 4.268 3.134 6.383.74 2.367.217 5.02 1.109 6.977 1.101 2.416 3.559 3.842 4.776 5.443 2.034 2.674 3.668 5.052 5.554 4.66 1.885-.392 2.438-3.223 3.239-6.485.479-1.953 2.166-4.239 2.214-6.894.039-2.151-1.498-4.375-1.761-6.841-.235-2.205.822-4.748.333-7.105-.489-2.357-2.472-4.268-3.134-6.383-.74-2.367-.217-5.02-1.109-6.977-1.101-2.416-3.559-3.842-4.776-5.443-2.034-2.674-3.668-5.052-5.554-4.66-1.885.392-2.438 3.223-3.239 6.485-.479 1.953-2.166 4.239-2.214 6.894-.039 2.151 1.498 4.375 1.761 6.841.235 2.204-.823 4.748-.333 7.105z" fill="#65C7CF"/><path d="M118.64 97.35C107.39 115.73 87.13 128 64 128S20.61 115.73 9.36 97.35h109.28z" fill="#65C7CF"/><circle cx="56.896" cy="16.298" fill="#FFF" r="1.681"/><circle cx="67.676" cy="12.937" fill="#FFF" r="1.681"/><circle cx="53.534" cy="40.072" fill="#FFF" r="1.681"/><circle cx="80.747" cy="30.169" fill="#FFF" r="1.681"/><circle cx="62.856" cy="26.645" fill="#FFF" r="1.681"/><circle cx="46.413" cy="25.805" fill="#EDE8EE" r=".84"/><circle cx="59.92" cy="34.401" fill="#FFF" r=".84"/><circle cx="76.037" cy="18.056" fill="#EDE8EE" r=".84"/><circle cx="20.683" cy="55.015" fill="#FFF" r="1.681"/><circle cx="31.463" cy="51.654" fill="#FFF" r="1.681"/><circle cx="17.321" cy="78.789" fill="#FFF" r="1.681"/><circle cx="44.534" cy="68.885" fill="#FFF" r="1.681"/><circle cx="26.643" cy="65.362" fill="#FFF" r="1.681"/><circle cx="10.2" cy="64.522" fill="#EDE8EE" r=".84"/><circle cx="23.707" cy="73.118" fill="#FFF" r=".84"/><circle cx="39.824" cy="56.773" fill="#EDE8EE" r=".84"/><path d="m106.42 97.35-8.126-50.67-8.956 50.67z" fill="#173842"/><path d="m98.294 46.68-58.523.837L30.2 97.35h59.131l.007-.23z" fill="#FFF"/><path d="m50.302 68.283-6.856.098 1.071-5.883 6.856-.098zm11.851-.169-6.856.098 1.071-5.883 6.856-.098zm11.851-.17-6.856.099 1.071-5.884 6.856-.098zm11.851-.169-6.856.098 1.071-5.883 6.856-.098zM48.478 78.304l-6.856.098 1.071-5.883 6.856-.098zm11.851-.169-6.856.098 1.071-5.883 6.856-.098z" fill="#65C7CF"/><path d="m72.18 77.965-6.856.098 1.071-5.883 6.856-.098z" fill="#B99AC8"/><path d="m84.031 77.796-6.856.098 1.071-5.883 6.856-.098zM46.654 88.325l-6.856.098 1.071-5.883 6.856-.098zm11.851-.169-6.856.098 1.071-5.884 6.856-.098zm11.851-.17-6.856.098 1.071-5.883 6.856-.098zm11.851-.169-6.856.098 1.071-5.883 6.856-.099z" fill="#65C7CF"/><path d="m39.771 47.517 58.523-.837-1.386 7.804-58.645.888z" fill="#B99AC8"/><circle cx="82.75" cy="94.21" fill="#65C7CF" r="1.681"/><circle cx="93.53" cy="90.849" fill="#FFF" r="1.681"/><circle cx="79.388" cy="117.984" fill="#FFF" r="1.681"/><circle cx="106.601" cy="108.081" fill="#FFF" r="1.681"/><circle cx="88.71" cy="104.557" fill="#FFF" r="1.681"/><circle cx="72.267" cy="103.717" fill="#EDE8EE" r=".84"/><circle cx="85.774" cy="112.313" fill="#FFF" r=".84"/><circle cx="101.891" cy="95.968" fill="#EDE8EE" r=".84"/></svg>
